<svg xmlns="http://www.w3.org/2000/svg" version="1.1" xmlns:xlink="http://www.w3.org/1999/xlink" width="1500" height="71" viewBox="0 0 1500 71"><svg xml:space="preserve" width="1500" height="71" data-version="2" data-id="lg_9KGONfMBxFDLDlqqRP" viewBox="0 0 578 71" x="0" y="0"><rect width="100%" height="100%" fill="transparent"></rect><path d="M168.615 10.765q-1.66 0-2.45.2-.78.21-1.37.79-.49.5-.87 1.37-.37.87-.37 1.62l-4.57-.08q.17-3.9 2.49-6.23 1.25-1.16 2.95-1.7 1.7-.54 4.28-.62h18.26q4.73 0 8.54 1.87 3.82 1.86 6.02 5.27 2.2 3.4 2.2 7.88 0 4.15-1.7 7.18-1.7 3.03-4.61 4.03-.08 0-.45.2-.38.21-2.04.71.5.17 1.21.33.7.17 1.45.5 4.15 1.91 6.47 5.77 2.33 3.86 2.33 8.92 0 8.13-6.02 11.99-6.02 3.86-17.06 3.86-6.97 0-10.29-.41l-4.4-.5zm16.1 49.3q16.69 0 16.69-11.46 0-5.89-3.99-9.25-3.98-3.36-9.96-3.36h-7.88v-4.57h7.3q5.4 0 8.63-2.74 3.24-2.73 3.24-7.63 0-4.82-2.86-7.43-2.87-2.61-7.76-2.86h-14.53v48.88l8.14.34z"></path><rect width="47.4" height="58.51" x="-23.7" y="-29.25" fill="none" rx="0" ry="0" transform="translate(183.19 35.87)"></rect><path d="M221.325 12.755q-.42-.83-1.12-1.33-.71-.5-1.54-.5-.58 0-1.16.33-.91.5-1.16 1.17l-3.99-2q.58-1.99 3.07-3.4 1.58-.91 3.57-.91 2 0 3.7 1.12 1.7 1.12 2.86 3.19l12.78 23.41 15.03-26.89h5.31l-17.93 32.04.17 24.81h-5.07v-24.65z"></path><rect width="46.32" height="57.68" x="-23.16" y="-28.84" fill="none" rx="0" ry="0" transform="translate(236.01 35.45)"></rect><path d="M284.235 11.675h-12.95q-1.32 0-2.07.87-.75.87-.75 1.95h-4.73q0-3.07 2.16-5.23 2.24-2.24 5.14-2.24h37.6v4.65h-19.42v52.12h-4.98z"></path><rect width="44.9" height="56.77" x="-22.45" y="-28.39" fill="none" rx="0" ry="0" transform="translate(286.69 35.91)"></rect><path d="M323.825 11.675q-1.66 0-2.45.21-.78.2-1.37.79-.49.49-.87 1.37-.37.87-.37 1.61l-4.57-.08q.17-3.9 2.49-6.22 1.25-1.17 2.95-1.71 1.7-.54 4.28-.62h36.27v4.65h-31.38v19.75h21.42v4.65h-21.42v23.08h31.38v4.64h-36.36z"></path><rect width="45.99" height="56.77" x="-23" y="-28.39" fill="none" rx="0" ry="0" transform="translate(337.69 35.91)"></rect><path d="M376.445 11.675q-1.66 0-2.44.21-.79.2-1.37.79-.5.49-.88 1.37-.37.87-.37 1.61l-4.56-.08q.16-3.9 2.49-6.22 1.24-1.17 2.94-1.71t4.28-.62h36.27v4.65h-31.38v19.75h21.42v4.65h-21.42v23.08h31.38v4.64h-36.36z"></path><rect width="45.98" height="56.77" x="-22.99" y="-28.39" fill="none" rx="0" ry="0" transform="translate(390.31 35.91)"></rect><path d="M426.085 64.875q-2.66 0-4.53-1.41-1.86-1.41-2.44-3.65l3.81-2.08q.42 1.08 1.21 1.79.79.7 1.87.7.99 0 1.61-.66.63-.66 1.29-2.24l21.25-51.05h1.66l24.15 57.52h-5.31l-7.89-18.84h-23.65l-6.23 15.44q-.83 2.08-2.73 3.28-1.91 1.2-4.07 1.2m15.02-24.57h19.67l-8.96-22.32-.91-3.32-.83 3.32z"></path><rect width="56.85" height="58.6" x="-28.43" y="-29.3" fill="none" rx="0" ry="0" transform="translate(448.04 36.08)"></rect><path d="M501.945 11.675h-12.95q-1.33 0-2.07.87-.75.87-.75 1.95h-4.73q0-3.07 2.16-5.23 2.24-2.24 5.14-2.24h37.6v4.65h-19.42v52.12h-4.98z"></path><rect width="44.9" height="56.77" x="-22.45" y="-28.39" fill="none" rx="0" ry="0" transform="translate(504.4 35.91)"></rect><path d="M552.495 65.545q-4.73 0-9.09-1.87-4.36-1.87-7.43-5.15-3.07-3.28-4.07-7.34l4.15-1.75q1.33 5.07 5.94 8.3 4.6 3.24 10.5 3.24 3.98 0 7.22-1.74 3.24-1.74 5.1-4.77 1.87-3.03 1.87-6.69 0-2.9-1.24-5.02-1.25-2.11-4.24-4.06-2.99-1.95-8.55-4.28-8.13-3.4-11.53-6.93-3.41-3.53-3.41-8.51 0-3.9 2-7.05 1.99-3.16 5.51-4.94 3.53-1.78 7.93-1.78 3.82 0 6.89 1.28 3.07 1.29 4.81 3.57 1.75 2.28 1.75 5.11 0 3.32-2.45 5.47-2.45 2.16-6.02 1.75l.33-4.32q1.33.17 2.33-.7.99-.88.99-2.29 0-2.16-2.57-3.73-2.57-1.58-5.98-1.58-2.82 0-5.27 1.2-2.44 1.21-3.86 3.28-1.41 2.08-1.41 4.48 0 3.49 2.95 6.19t9.92 5.68q8.71 3.74 12.41 7.68 3.69 3.94 3.69 9.42 0 4.9-2.57 9.01-2.58 4.11-6.97 6.47-4.4 2.37-9.63 2.37"></path><rect width="39.76" height="60.34" x="-19.88" y="-30.17" fill="none" rx="0" ry="0" transform="translate(552.28 35.88)"></rect><path d="M122.218 27.226c-2.143 0-4.041 1.188-5.099 2.99h-6.989C109.046 10.377 100.561.313 84.837.313c-4.727 0-7.126.8-9.443 1.571-2.189.73-4.256 1.42-8.5 1.42s-6.31-.69-8.499-1.42c-2.319-.77-4.716-1.57-9.443-1.57-15.484 0-24.16 10.32-25.284 29.904h-7.25c-1.06-1.803-2.958-2.99-5.101-2.99a5.989 5.989 0 0 0-5.981 5.98c0 .506.084 1.002.21 1.49a6.053 6.053 0 0 0-.21 1.5 5.989 5.989 0 0 0 5.98 5.981c2.144 0 4.042-1.188 5.1-2.99h7.252c1.124 19.584 9.8 29.904 25.284 29.904 4.727 0 7.126-.8 9.443-1.57 2.188-.731 4.255-1.42 8.5-1.42 4.243 0 6.31.689 8.499 1.42 2.319.77 4.716 1.57 9.443 1.57 15.483 0 24.16-10.32 25.284-29.904h6.995c1.06 1.799 2.957 2.99 5.102 2.99a5.989 5.989 0 0 0 5.981-5.98c0-.506-.084-1.002-.21-1.49.126-.491.21-.994.21-1.501a5.989 5.989 0 0 0-5.98-5.98m-106.627 8.97c-.021 0-.039.011-.056.011a1.478 1.478 0 0 0-1.402.987 2.992 2.992 0 1 1-5.636-2c.027-.073.017-.146.032-.22.014-.09.035-.174.035-.266a1.426 1.426 0 0 0-.047-.348c-.014-.052-.004-.108-.024-.16a2.992 2.992 0 1 1 5.643-1.991 1.486 1.486 0 0 0 1.41.984c.018 0 .03.008.045.008h7.977c-.01.502-.038.98-.038 1.496 0 .515.029.993.038 1.496h-7.977zm69.244 29.904c-4.244 0-6.311-.689-8.5-1.42-2.318-.77-4.715-1.57-9.443-1.57-4.727 0-7.126.8-9.443 1.57-2.188.731-4.255 1.42-8.5 1.42-14.881 0-22.427-10.563-22.427-31.4 0-20.837 7.546-31.4 22.428-31.4 4.244 0 6.31.689 8.499 1.42 2.319.77 4.716 1.57 9.443 1.57 4.728 0 7.126-.8 9.444-1.57 2.188-.731 4.255-1.42 8.499-1.42 15.092 0 22.427 10.27 22.427 31.4.002 20.836-7.545 31.4-22.427 31.4m37.381-26.915a2.995 2.995 0 0 1-2.821-1.997 1.482 1.482 0 0 0-1.407-.984c-.017 0-.029-.008-.046-.008h-7.726c.01-.502.038-.98.038-1.496 0-.515-.027-.994-.035-1.496h7.721c.021 0 .039-.011.056-.011a1.48 1.48 0 0 0 1.402-.987 2.992 2.992 0 1 1 5.636 2c-.027.073-.017.146-.033.22a1.368 1.368 0 0 0-.034.266 1.426 1.426 0 0 0 .047.348c.01.052.004.105.024.16a2.99 2.99 0 0 1-2.822 3.985"></path><path d="M54.933 33.207a6.794 6.794 0 0 0-.1-1.096l-4.76-2.38c-.678.82-1.121 2.061-1.121 3.476 0 2.477 1.336 4.485 2.99 4.485s2.99-2.008 2.99-4.485m24.023-1.094a6.777 6.777 0 0 0-.099 1.096c0 2.476 1.337 4.484 2.99 4.484s2.99-2.01 2.99-4.484c0-1.414-.442-2.656-1.12-3.476zm-12.06 8.57c-7.422 0-13.458 6.038-13.458 13.459a1.496 1.496 0 1 0 2.992 0 10.478 10.478 0 0 1 10.465-10.466A10.478 10.478 0 0 1 77.36 54.142a1.496 1.496 0 1 0 2.992 0c0-7.421-6.037-13.458-13.458-13.458"></path></svg></svg>